<svg xmlns="http://www.w3.org/2000/svg" xmlns:xlink="http://www.w3.org/1999/xlink" viewBox="0 0 29.42 32"><defs><style>.cls-1,.cls-3{fill:none;}.cls-2{clip-path:url(#clip-path);}.cls-3{stroke:#fff;stroke-linecap:round;stroke-linejoin:round;}</style><clipPath id="clip-path" transform="translate(0)"><rect class="cls-1" width="29.42" height="32"/></clipPath></defs><title>antiDdosProtection_32px-bkg-dark</title><g id="Calque_2" data-name="Calque 2"><g id="Calque_1-2" data-name="Calque 1"><g id="antiDdosProtection_32px-bkg-dark"><g class="cls-2"><g class="cls-2"><path class="cls-3" d="M14.78.5A10.79,10.79,0,0,0,16.7,3.31,11.37,11.37,0,0,0,20.62,6a13.18,13.18,0,0,0,5,1,13.56,13.56,0,0,1,.61,1.37c.59,1.57,2.69,7.89,2.69,10A8,8,0,0,1,27,24C25.81,25.3,14.71,31.5,14.71,31.5S3.6,25.3,2.38,24A7.92,7.92,0,0,1,.5,18.4c0-2.15,2.09-8.49,2.69-10.06A13.41,13.41,0,0,1,3.8,7a13.18,13.18,0,0,0,5-1,11.36,11.36,0,0,0,3.91-2.68A10.74,10.74,0,0,0,14.64.5Z" transform="translate(0)"/><path class="cls-3" d="M11.13,29.47A10.58,10.58,0,0,1,7.67,15.18a8.05,8.05,0,0,1,11.1-3,6.65,6.65,0,0,1,2.28,9,5.15,5.15,0,0,1-7.1,1.91,4.26,4.26,0,0,1-1.46-5.78A3.3,3.3,0,0,1,17,16.13a2.73,2.73,0,0,1,.94,3.7,2.11,2.11,0,0,1-2.91.78,1.74,1.74,0,0,1-.6-2.37,1.35,1.35,0,0,1,1.86-.5,1.12,1.12,0,0,1,.38,1.52.86.86,0,0,1-1.19.32.71.71,0,0,1-.24-1A.55.55,0,0,1,16,18.4a.46.46,0,0,1,.16.62" transform="translate(0)"/><path class="cls-3" d="M16.5,18.81a.87.87,0,1,1-.87-.87.87.87,0,0,1,.87.87" transform="translate(0)"/></g></g></g></g></g></svg>
