<svg xmlns="http://www.w3.org/2000/svg" xmlns:xlink="http://www.w3.org/1999/xlink" viewBox="0 0 32 24"><defs><style>.cls-1,.cls-3,.cls-5{fill:none;}.cls-2{clip-path:url(#clip-path);}.cls-3,.cls-5{stroke:#fff;}.cls-3{stroke-linecap:round;stroke-linejoin:round;}.cls-4{fill:#fff;}.cls-5{stroke-miterlimit:10;}</style><clipPath id="clip-path"><rect class="cls-1" width="32" height="24"/></clipPath></defs><title>appGear_32px-bkg-dark</title><g id="Calque_2" data-name="Calque 2"><g id="Calque_1-2" data-name="Calque 1"><g id="appGear_32px-bkg-dark"><g class="cls-2"><g class="cls-2"><line class="cls-3" x1="1" y1="7.5" x2="31" y2="7.5"/><path class="cls-4" d="M5,4A1,1,0,1,1,4,3,1,1,0,0,1,5,4"/><path class="cls-5" d="M1.5,23.5a1,1,0,0,1-1-1V1.5a1,1,0,0,1,1-1l29,0a1,1,0,0,1,1,1v21a1,1,0,0,1-1,1Z"/><path class="cls-4" d="M9,4A1,1,0,1,1,8,3,1,1,0,0,1,9,4"/><path class="cls-4" d="M13,4a1,1,0,1,1-1-1,1,1,0,0,1,1,1"/><circle class="cls-3" cx="16" cy="19" r="2.5"/><path class="cls-3" d="M22.25,23.13a7.47,7.47,0,0,0,1.09-2.63h2a8.72,8.72,0,0,0,0-3h-2a7.48,7.48,0,0,0-1.09-2.63l1.43-1.43a8.71,8.71,0,0,0-2.12-2.12l-1.43,1.43a7.45,7.45,0,0,0-2.63-1.09v-2a8.72,8.72,0,0,0-3,0v2a7.45,7.45,0,0,0-2.63,1.09l-1.43-1.43a8.66,8.66,0,0,0-2.12,2.12l1.43,1.43A7.46,7.46,0,0,0,8.65,17.5h-2a8.72,8.72,0,0,0,0,3h2a7.45,7.45,0,0,0,1.09,2.63"/></g></g></g></g></g></svg>