<svg xmlns="http://www.w3.org/2000/svg" xmlns:xlink="http://www.w3.org/1999/xlink" viewBox="0 0 30 30"><defs><style>.cls-1,.cls-3{fill:none;}.cls-2{clip-path:url(#clip-path);}.cls-3{stroke:#fff;stroke-linecap:round;stroke-linejoin:round;}.cls-4{fill:#fff;}</style><clipPath id="clip-path" transform="translate(0 0)"><rect class="cls-1" width="30" height="30"/></clipPath></defs><title>application_32px-bkg-dark</title><g id="Calque_2" data-name="Calque 2"><g id="Calque_1-2" data-name="Calque 1"><g id="application_32px-bkg-dark"><g class="cls-2"><g class="cls-2"><path class="cls-3" d="M7.45,21.5h-6a1,1,0,0,1-1-1V1.5a1,1,0,0,1,1-1h27a1,1,0,0,1,1,1v19a1,1,0,0,1-1,1h-13" transform="translate(0 0)"/><line class="cls-3" x1="0.5" y1="7.5" x2="29.5" y2="7.5"/><path class="cls-4" d="M5,4A1,1,0,1,1,4,3,1,1,0,0,1,5,4" transform="translate(0 0)"/><polygon class="cls-3" points="15.5 13.5 6.27 22.67 9.56 23.03 7.4 28.2 10.54 29.5 12.7 24.33 15.5 26.5 15.5 13.5"/><path class="cls-4" d="M9,4A1,1,0,1,1,8,3,1,1,0,0,1,9,4" transform="translate(0 0)"/><path class="cls-4" d="M13,4a1,1,0,1,1-1-1,1,1,0,0,1,1,1" transform="translate(0 0)"/></g></g></g></g></g></svg>