<svg xmlns="http://www.w3.org/2000/svg" xmlns:xlink="http://www.w3.org/1999/xlink" viewBox="0 0 32 24"><defs><style>.cls-1,.cls-3,.cls-5{fill:none;}.cls-2{clip-path:url(#clip-path);}.cls-3,.cls-5{stroke:#fff;}.cls-3{stroke-linecap:round;stroke-linejoin:round;}.cls-4{fill:#fff;}.cls-5{stroke-miterlimit:10;}</style><clipPath id="clip-path"><rect class="cls-1" width="32" height="24"/></clipPath></defs><title>appScript_32px-bkg-dark</title><g id="Calque_2" data-name="Calque 2"><g id="Calque_1-2" data-name="Calque 1"><g id="appScript_32px-bkg-dark"><g class="cls-2"><g class="cls-2"><line class="cls-3" x1="0.5" y1="7.5" x2="31.5" y2="7.5"/><path class="cls-4" d="M5,4A1,1,0,1,1,4,3,1,1,0,0,1,5,4"/><rect class="cls-5" x="0.5" y="0.5" width="31" height="23" rx="1" ry="1"/><path class="cls-4" d="M9,4A1,1,0,1,1,8,3,1,1,0,0,1,9,4"/><path class="cls-4" d="M13,4a1,1,0,1,1-1-1,1,1,0,0,1,1,1"/><polyline class="cls-3" points="13.51 11.5 9.49 15.5 13.51 19.5"/><polyline class="cls-3" points="18.5 11.5 22.5 15.5 18.5 19.5"/></g></g></g></g></g></svg>