<svg xmlns="http://www.w3.org/2000/svg" xmlns:xlink="http://www.w3.org/1999/xlink" viewBox="0 0 32 24"><defs><style>.cls-1,.cls-3,.cls-5{fill:none;}.cls-2{clip-path:url(#clip-path);}.cls-3,.cls-5{stroke:#fff;}.cls-3{stroke-linecap:round;stroke-linejoin:round;}.cls-4{fill:#fff;}.cls-5{stroke-miterlimit:10;}</style><clipPath id="clip-path" transform="translate(0 0)"><rect class="cls-1" width="32" height="24"/></clipPath></defs><title>appWorld_32px-bkg-dark</title><g id="Calque_2" data-name="Calque 2"><g id="Calque_1-2" data-name="Calque 1"><g id="appWorld_32px-bkg-dark"><g class="cls-2"><g class="cls-2"><line class="cls-3" x1="1" y1="7.5" x2="31" y2="7.5"/><path class="cls-4" d="M5,4A1,1,0,1,1,4,3,1,1,0,0,1,5,4" transform="translate(0 0)"/><path class="cls-5" d="M30.5,23.48a1,1,0,0,0,1-1v-21a1,1,0,0,0-1-1L1.5.5a1,1,0,0,0-1,1v21a1,1,0,0,0,1,1Z" transform="translate(0 0)"/><circle class="cls-3" cx="16" cy="16" r="5.5"/><line class="cls-3" x1="10.92" y1="17.5" x2="21.08" y2="17.5"/><ellipse class="cls-3" cx="16" cy="16" rx="2.5" ry="5.5"/><line class="cls-3" x1="10.71" y1="14.5" x2="21.29" y2="14.5"/><path class="cls-4" d="M9,4A1,1,0,1,1,8,3,1,1,0,0,1,9,4" transform="translate(0 0)"/><path class="cls-4" d="M13,4a1,1,0,1,1-1-1,1,1,0,0,1,1,1" transform="translate(0 0)"/></g></g></g></g></g></svg>