<svg xmlns="http://www.w3.org/2000/svg" xmlns:xlink="http://www.w3.org/1999/xlink" viewBox="0 0 32 28"><defs><style>.cls-1,.cls-3{fill:none;}.cls-2{clip-path:url(#clip-path);}.cls-3{stroke:#fff;stroke-linecap:round;stroke-linejoin:round;}</style><clipPath id="clip-path"><rect class="cls-1" width="32" height="28"/></clipPath></defs><title>balance_32px-bkg-dark</title><g id="Calque_2" data-name="Calque 2"><g id="Calque_1-2" data-name="Calque 1"><g id="balance_32px-bkg-dark"><g class="cls-2"><g class="cls-2"><path class="cls-3" d="M23.5,13.5a4,4,0,0,0,8,0Z"/><polygon class="cls-3" points="31.5 13.5 27.5 3.5 23.5 13.5 31.5 13.5"/><line class="cls-3" x1="27.5" y1="3.5" x2="4.5" y2="3.5"/><line class="cls-3" x1="25.5" y1="27.5" x2="6.5" y2="27.5"/><path class="cls-3" d="M13,3.5a3,3,0,0,1,6,0"/><path class="cls-3" d="M.5,13.5a4,4,0,0,0,8,0Z"/><polygon class="cls-3" points="8.5 13.5 4.5 3.5 0.5 13.5 8.5 13.5"/><path class="cls-3" d="M11.5,27.5a4,4,0,0,0,4-4V3.5"/><path class="cls-3" d="M20.5,27.5a4,4,0,0,1-4-4V3.5"/></g></g></g></g></g></svg>