<svg xmlns="http://www.w3.org/2000/svg" xmlns:xlink="http://www.w3.org/1999/xlink" viewBox="0 0 28 32"><defs><style>.cls-1,.cls-3{fill:none;}.cls-2{clip-path:url(#clip-path);}.cls-3{stroke:#fff;stroke-linecap:round;stroke-linejoin:round;}</style><clipPath id="clip-path"><rect class="cls-1" width="28" height="32"/></clipPath></defs><title>bin_32px-bkg-dark</title><g id="Calque_2" data-name="Calque 2"><g id="Calque_1-2" data-name="Calque 1"><g id="bin_32px-bkg-dark"><g class="cls-2"><g class="cls-2"><path class="cls-3" d="M2.5,10.5v18a3,3,0,0,0,3,3h17a3,3,0,0,0,3-3v-18"/><path class="cls-3" d="M.5,10.5h27v-5a1,1,0,0,0-1-1H1.5a1,1,0,0,0-1,1Z"/><path class="cls-3" d="M19.5,4.5v-3a1,1,0,0,0-1-1h-9a1,1,0,0,0-1,1v3"/><line class="cls-3" x1="6.5" y1="15.5" x2="6.5" y2="26.5"/><line class="cls-3" x1="21.5" y1="15.5" x2="21.5" y2="26.5"/><line class="cls-3" x1="11.5" y1="15.5" x2="11.5" y2="26.5"/><line class="cls-3" x1="16.5" y1="15.5" x2="16.5" y2="26.5"/></g></g></g></g></g></svg>