<svg xmlns="http://www.w3.org/2000/svg" xmlns:xlink="http://www.w3.org/1999/xlink" viewBox="0 0 32 29.45"><defs><style>.cls-1,.cls-3{fill:none;}.cls-2{clip-path:url(#clip-path);}.cls-3{stroke:#fff;stroke-linecap:round;stroke-linejoin:round;}.cls-4{fill:#fff;}</style><clipPath id="clip-path" transform="translate(0 0)"><rect class="cls-1" width="32" height="29.46"/></clipPath></defs><title>bird_32px-bkg-dark</title><g id="Calque_2" data-name="Calque 2"><g id="Calque_1-2" data-name="Calque 1"><g id="bird_32px-bkg-dark"><g class="cls-2"><g class="cls-2"><path class="cls-3" d="M10.19,19.39l-1.1-2,1.37-5.05.51-5L9.8.5l6.6,4.85,1.84,10L15,16.31.5,25.65,3.94,29l3.75-.53,2.74-4.26s9.07,2.11,12-4.6c2.51-.27,4.73-.73,5.63-4.07a23.53,23.53,0,0,1-2.46-1.61l-7.33,1.47" transform="translate(0 0)"/><polyline class="cls-3" points="26.66 18.04 31.5 16.68 28.01 15.54"/><path class="cls-3" d="M20.46,14.92c.18,0-.75-6-.75-6l-3-2,1.55,8.45Z" transform="translate(0 0)"/><line class="cls-3" x1="14.45" y1="6.8" x2="10.43" y2="4.17"/><line class="cls-3" x1="15.19" y1="9.97" x2="10.83" y2="8.64"/><path class="cls-3" d="M15.48,13.56c-.22-.14-5.31,0-5.31,0" transform="translate(0 0)"/><polygon class="cls-3" points="10.19 19.39 3.94 28.95 0.5 25.65 10.19 19.39"/><path class="cls-3" d="M16.54,17.33c1.6,0,4.06,2.52,5.86,2.24" transform="translate(0 0)"/><path class="cls-4" d="M25.34,15.82a.5.5,0,1,1-.5-.5.5.5,0,0,1,.5.5" transform="translate(0 0)"/></g></g></g></g></g></svg>