<svg xmlns="http://www.w3.org/2000/svg" xmlns:xlink="http://www.w3.org/1999/xlink" viewBox="0 0 26.71 32"><defs><style>.cls-1,.cls-3{fill:none;}.cls-2{clip-path:url(#clip-path);}.cls-3{stroke:#fff;stroke-linecap:round;stroke-linejoin:round;}</style><clipPath id="clip-path" transform="translate(0 0)"><rect class="cls-1" width="26.71" height="32"/></clipPath></defs><title>book_32px-bkg-dark</title><g id="Calque_2" data-name="Calque 2"><g id="Calque_1-2" data-name="Calque 1"><g id="book_32px-bkg-dark"><g class="cls-2"><line class="cls-3" x1="5.29" y1="3.67" x2="9.13" y2="23.37"/><g class="cls-2"><path class="cls-3" d="M26.21,28.3,8.79,31.43A4,4,0,0,1,4.15,28.2L.56,8.28A4,4,0,0,1,3.79,3.63L21.21.5Z" transform="translate(0 0)"/><path class="cls-3" d="M4.3,28.8l-.08-.42a4,4,0,0,1,3.12-4.65l17.41-3.55" transform="translate(0 0)"/><path class="cls-3" d="M25.11,22.34l-17,3.37a2,2,0,0,0-1.56,2.35,1.71,1.71,0,0,0,2,1.33l15.17-2.83-.82-3.78" transform="translate(0 0)"/></g></g></g></g></g></svg>