<svg xmlns="http://www.w3.org/2000/svg" xmlns:xlink="http://www.w3.org/1999/xlink" viewBox="0 0 32 22.8"><defs><style>.cls-1,.cls-3{fill:none;}.cls-2{clip-path:url(#clip-path);}.cls-3{stroke:#fff;stroke-linejoin:round;}</style><clipPath id="clip-path" transform="translate(0 0)"><rect class="cls-1" width="32" height="22.8"/></clipPath></defs><title>brandYoutube_32px-bkg-dark</title><g id="Calque_2" data-name="Calque 2"><g id="Calque_1-2" data-name="Calque 1"><g id="brandYoutube_32px-bkg-dark"><g class="cls-2"><g class="cls-2"><path class="cls-3" d="M31.19,5.2A6.71,6.71,0,0,0,30,2.13,4.43,4.43,0,0,0,26.85.81C22.51.5,16,.5,16,.5h0S9.49.5,5.15.81A4.43,4.43,0,0,0,2,2.13,6.7,6.7,0,0,0,.81,5.2a46.9,46.9,0,0,0-.31,5v2.35a46.9,46.9,0,0,0,.31,5A6.7,6.7,0,0,0,2,20.67,5.25,5.25,0,0,0,5.46,22c2.48.24,10.54.31,10.54.31s6.51,0,10.85-.32A4.44,4.44,0,0,0,30,20.67a6.7,6.7,0,0,0,1.23-3.08,47,47,0,0,0,.31-5V10.22A47,47,0,0,0,31.19,5.2ZM12.8,15.42V6.71l8.38,4.37Z" transform="translate(0 0)"/></g></g></g></g></g></svg>