<svg xmlns="http://www.w3.org/2000/svg" xmlns:xlink="http://www.w3.org/1999/xlink" viewBox="0 0 30.01 32"><defs><style>.cls-1,.cls-3{fill:none;}.cls-2{clip-path:url(#clip-path);}.cls-3{stroke:#fff;stroke-linecap:round;stroke-linejoin:round;}</style><clipPath id="clip-path" transform="translate(0 0)"><rect class="cls-1" width="30.01" height="32"/></clipPath></defs><title>brandOpenstack_32px-bkg-dark</title><g id="Calque_2" data-name="Calque 2"><g id="Calque_1-2" data-name="Calque 1"><g id="brandOpenstack_32px-bkg-dark"><g class="cls-2"><polyline class="cls-3" points="24.19 22.48 20.68 19.01 21.83 18.91"/><g class="cls-2"><line class="cls-3" x1="28.35" y1="20.88" x2="29.5" y2="22.01"/><path class="cls-3" d="M9.35,22.1l10.45-.91s.88-.11.88-.87V19" transform="translate(0 0)"/><line class="cls-3" x1="23.3" y1="24.66" x2="10.23" y2="25.8"/><path class="cls-3" d="M29.5,22v5.72a1.88,1.88,0,0,1-1.69,1.83L5.71,31.49A1.51,1.51,0,0,1,4,30V24.24l5.31-.47V25a.79.79,0,0,0,.88.8L23.3,24.66a1,1,0,0,0,.89-1V22.48Z" transform="translate(0 0)"/><polyline class="cls-3" points="8.21 22.64 9.35 23.78 4.04 24.24 0.53 20.77 1.68 20.67"/><path class="cls-3" d="M.53,20.77v5.72A1.52,1.52,0,0,0,1,27.59l3.51,3.47" transform="translate(0 0)"/><polyline class="cls-3" points="29.47 12.37 29.5 20.78 24.19 21.25 24.16 12.83"/><polyline class="cls-3" points="24.19 21.25 20.68 17.77 20.65 9.95"/><line class="cls-3" x1="21.39" y1="10.1" x2="24.16" y2="12.83"/><polyline class="cls-3" points="28.31 11.22 29.47 12.37 24.16 12.83 21.2 9.91"/><polygon class="cls-3" points="9.32 14.13 9.35 22.55 4.04 23.01 4.01 14.6 9.32 14.13"/><polyline class="cls-3" points="4.01 14.6 4.04 23.01 0.53 19.54 0.5 11.13"/><polyline class="cls-3" points="8.15 12.97 9.32 14.13 4.01 14.6 0.5 11.13 1.7 11.02"/><path class="cls-3" d="M5.74,6,27.83,4a1.52,1.52,0,0,1,1.68,1.54l0,5.55-5.31.46V10.52a.79.79,0,0,0-.88-.8L10.23,10.86a1,1,0,0,0-.88,1v1.06L4,13.33V7.78A1.88,1.88,0,0,1,5.74,6Z" transform="translate(0 0)"/><path class="cls-3" d="M4,13.33.53,9.86l0-5.55A1.88,1.88,0,0,1,2.23,2.48L25.06.5S28.6,3.82,29,4.41" transform="translate(0 0)"/><line class="cls-3" x1="24.19" y1="11.58" x2="22.39" y2="9.8"/></g></g></g></g></g></svg>