<svg xmlns="http://www.w3.org/2000/svg" xmlns:xlink="http://www.w3.org/1999/xlink" viewBox="0 0 30 30"><defs><style>.cls-1,.cls-3{fill:none;}.cls-2{clip-path:url(#clip-path);}.cls-3{stroke:#fff;stroke-miterlimit:10;}</style><clipPath id="clip-path" transform="translate(0 0)"><rect class="cls-1" width="30" height="30"/></clipPath></defs><title>brandSlack_32px-bkg-dark</title><g id="Calque_2" data-name="Calque 2"><g id="Calque_1-2" data-name="Calque 1"><g id="brandSlack_32px-bkg-dark"><g class="cls-2"><rect class="cls-3" x="12.96" y="13.05" width="4.08" height="3.94" transform="translate(-3.99 5.54) rotate(-18.52)"/><rect class="cls-3" x="12.96" y="13.05" width="4.08" height="3.94" transform="translate(-3.99 5.54) rotate(-18.52)"/><g class="cls-2"><path class="cls-3" d="M28.28,11C25.29,1,21-1.28,11,1.72S-1.28,9,1.72,19,9,31.28,19,28.28,31.27,21,28.28,11Zm-5,6.47-1.88.63L22,20.05a1.51,1.51,0,0,1-1,1.9,1.3,1.3,0,0,1-.51.07,1.55,1.55,0,0,1-1.39-1l-.65-1.95-3.87,1.3.65,1.95a1.51,1.51,0,0,1-1,1.9,1.3,1.3,0,0,1-.51.07,1.55,1.55,0,0,1-1.39-1l-.65-1.95-1.88.63a1.29,1.29,0,0,1-.51.07A1.55,1.55,0,0,1,8,21a1.5,1.5,0,0,1,1-1.9l1.88-.63L9.6,14.72l-1.88.63a1.29,1.29,0,0,1-.51.07,1.55,1.55,0,0,1-1.39-1,1.51,1.51,0,0,1,1-1.9l1.88-.63L8,9.92a1.5,1.5,0,0,1,2.85-1l.65,1.95,3.87-1.3-.65-1.95a1.5,1.5,0,1,1,2.85-.95l.65,1.95L20.1,8a1.5,1.5,0,0,1,1,2.85l-1.88.63,1.25,3.73,1.88-.63a1.5,1.5,0,0,1,1,2.85Z" transform="translate(0 0)"/></g></g></g></g></g></svg>