<svg xmlns="http://www.w3.org/2000/svg" xmlns:xlink="http://www.w3.org/1999/xlink" viewBox="0 0 32 30.53"><defs><style>.cls-1,.cls-3{fill:none;}.cls-2{clip-path:url(#clip-path);}.cls-3{stroke:#fff;stroke-linecap:round;stroke-linejoin:round;}.cls-4{fill:#fff;}</style><clipPath id="clip-path" transform="translate(0 0)"><rect class="cls-1" width="32" height="30.53"/></clipPath></defs><title>brandExchange_32px-bkg-dark</title><g id="Calque_2" data-name="Calque 2"><g id="Calque_1-2" data-name="Calque 1"><g id="brandExchange_32px-bkg-dark"><g class="cls-2"><g class="cls-2"><polygon class="cls-3" points="0.5 3.5 0.5 27.03 17.87 30.03 17.87 24.27 17.87 22.08 17.87 16.11 17.87 14.8 17.87 8.45 17.87 6.26 17.87 0.5 0.5 3.5"/><path class="cls-3" d="M20,24.27H30a1.55,1.55,0,0,0,1.55-1.55V7.81A1.55,1.55,0,0,0,30,6.26H20" transform="translate(0 0)"/><path class="cls-4" d="M29.31,20.18V21.7a.39.39,0,0,1-.39.39H25a.39.39,0,0,1-.27-.11L23.2,20.41a.27.27,0,0,1,0-.38l.56-.56a.27.27,0,0,1,.38,0l.7.7.06,0h2.5V18C26,16,23.33,14.46,23.77,14s5.47,3.2,5.53,3.66Z" transform="translate(0 0)"/><path class="cls-4" d="M29.31,10.36v2.37a.39.39,0,0,1-.11.27l-1.56,1.56a.27.27,0,0,1-.38,0L26.69,14a.27.27,0,0,1,0-.38l.69-.7a.08.08,0,0,0,0-.05v-2.5H25.21c-1.94,1.45-3.52,4.07-4,3.63s3.2-5.47,3.66-5.54h4a.39.39,0,0,1,.39.39Z" transform="translate(0 0)"/><path class="cls-4" d="M19.5,20.18h.27c1.94-1.44,3.52-4.07,4-3.63s-3.2,5.47-3.66,5.54h-.6Z" transform="translate(0 0)"/><path class="cls-4" d="M19.5,14.56c1.07,1,2,1.69,1.71,2s-.87-.12-1.71-.63Z" transform="translate(0 0)"/><path class="cls-4" d="M19.5,8.45h.44a.39.39,0,0,1,.28.11l1.56,1.56a.27.27,0,0,1,0,.38l-.56.56a.27.27,0,0,1-.38,0l-.7-.69-.05,0H19.5Z" transform="translate(0 0)"/><polygon class="cls-4" points="12.17 21.37 5.58 20.75 5.58 8.41 11.92 7.74 11.92 10.23 8.06 10.5 8.06 13.36 11.65 13.27 11.65 15.74 8.06 15.7 8.06 18.64 12.17 18.88 12.17 21.37"/></g></g></g></g></g></svg>