<svg xmlns="http://www.w3.org/2000/svg" xmlns:xlink="http://www.w3.org/1999/xlink" viewBox="0 0 32 26.57"><defs><style>.cls-1,.cls-3{fill:none;}.cls-2{clip-path:url(#clip-path);}.cls-3{stroke:#fff;stroke-linecap:round;stroke-linejoin:round;}</style><clipPath id="clip-path" transform="translate(0 0)"><rect class="cls-1" width="32" height="26.57"/></clipPath></defs><title>brandTwitter_32px-bkg-dark</title><g id="Calque_2" data-name="Calque 2"><g id="Calque_1-2" data-name="Calque 1"><g id="brandTwitter_32px-bkg-dark"><g class="cls-2"><g class="cls-2"><path class="cls-3" d="M30.6,1.17a5.93,5.93,0,0,1-2.35,3.2c.39.18.72,0,1-.08S30,4.08,30.4,4a4,4,0,0,1,1.1-.3,9.48,9.48,0,0,1-2.33,2.57,1.82,1.82,0,0,0-.75,1.6C28,15.28,24.82,21,18,24.27,12.09,27.07,6.18,26.52.5,23.2a13.39,13.39,0,0,0,9.22-2.71A6.61,6.61,0,0,1,3.79,16a6.1,6.1,0,0,0,2.54-.08,1.75,1.75,0,0,0-.67-.35,6.44,6.44,0,0,1-4.09-5.37c-.09-.67,0-.7.6-.44a4.62,4.62,0,0,0,2.07.45C3.81,9.74,3.35,9.41,3,9a6.4,6.4,0,0,1-.86-6.68c.2-.49.33-.6.73-.14A17.9,17.9,0,0,0,12.52,8c.83.2,1.68.28,2.52.42.57.1.66-.12.59-.61a6.18,6.18,0,0,1,1-4.33,6.39,6.39,0,0,1,9.33-1.56,1.76,1.76,0,0,0,1.93.38C28.78,1.94,29.67,1.55,30.6,1.17Z" transform="translate(0 0)"/></g></g></g></g></g></svg>