<svg xmlns="http://www.w3.org/2000/svg" xmlns:xlink="http://www.w3.org/1999/xlink" viewBox="0 0 30 30"><defs><style>.cls-1,.cls-3{fill:none;}.cls-2{clip-path:url(#clip-path);}.cls-3{stroke:#fff;stroke-linecap:round;stroke-linejoin:round;}</style><clipPath id="clip-path" transform="translate(0 0)"><rect class="cls-1" width="30" height="30"/></clipPath></defs><title>brandFacebook_32px-bkg-dark</title><g id="Calque_2" data-name="Calque 2"><g id="Calque_1-2" data-name="Calque 1"><g id="brandFacebook_32px-bkg-dark"><g class="cls-2"><g class="cls-2"><path class="cls-3" d="M27.9.5H2.1A1.6,1.6,0,0,0,.5,2.1V27.9a1.6,1.6,0,0,0,1.6,1.6H16V18.27H12.21V13.89H16V10.67c0-3.75,2.29-5.78,5.63-5.78A30.78,30.78,0,0,1,25,5.05V9H22.68c-1.82,0-2.17.86-2.17,2.13v2.79h4.33l-.56,4.38H20.51V29.5H27.9a1.6,1.6,0,0,0,1.6-1.6V2.1A1.6,1.6,0,0,0,27.9.5Z" transform="translate(0 0)"/></g></g></g></g></g></svg>