<svg xmlns="http://www.w3.org/2000/svg" xmlns:xlink="http://www.w3.org/1999/xlink" viewBox="0 0 31 12.88"><defs><style>.cls-1{fill:none;}.cls-2{clip-path:url(#clip-path);}.cls-3{fill:#fff;}</style><clipPath id="clip-path" transform="translate(0 0)"><rect class="cls-1" width="31" height="12.88"/></clipPath></defs><title>brandPlesk_32px-bkg-dark</title><g id="Calque_2" data-name="Calque 2"><g id="Calque_1-2" data-name="Calque 1"><g id="brandPlesk_32px-bkg-dark"><g class="cls-2"><g class="cls-2"><path class="cls-3" d="M0,7.92C0,6.4,0,4.87,0,3.34c0-.26.08-.37.32-.43A5.8,5.8,0,0,1,4,3,3.35,3.35,0,0,1,6,6.32,3.37,3.37,0,0,1,2.3,9.56a3.7,3.7,0,0,1-1-.13C1,9.35,1,9.45,1,9.69c0,.94,0,1.87,0,2.81,0,.27,0,.39-.36.38-.62,0-.62,0-.62-.63ZM1,6.08q0,1.05,0,2.1c0,.14,0,.28.18.34,1.79.6,4-.11,3.76-2.73a2.3,2.3,0,0,0-2-2.29,4.35,4.35,0,0,0-1.65.09A.31.31,0,0,0,1,4c0,.7,0,1.4,0,2.1" transform="translate(0 0)"/><path class="cls-3" d="M26.49,6.06c0,1.1,0,2.1,0,3.1,0,.29-.06.38-.36.37-.63,0-.64,0-.64-.65,0-2.83,0-5.67,0-8.5,0-.31.08-.39.38-.38.61,0,.62,0,.62.62q0,2.42,0,4.84a.83.83,0,0,0,0,.42A2.26,2.26,0,0,0,27,5.41c.79-.79,1.59-1.58,2.37-2.39a.88.88,0,0,1,.77-.31c.25,0,.51,0,.83,0-.41.42-.77.8-1.14,1.16-.65.64-1.3,1.27-2,1.9-.17.16-.18.25,0,.43,1,1,2,2.07,2.94,3.11l.18.21H29.81c-.16,0-.24-.11-.33-.21L26.86,6.45l-.37-.39" transform="translate(0 0)"/><path class="cls-3" d="M14.24,6.24c-.74,0-1.48,0-2.22,0-.25,0-.32.07-.28.31a2.27,2.27,0,0,0,1.36,2,2.59,2.59,0,0,0,2.68-.39c.09-.08.17-.29.31-.19a2.71,2.71,0,0,1,.5.54c0,.06-.06.13-.11.17a3.55,3.55,0,0,1-3.72.67,3,3,0,0,1-2-2.73,4.37,4.37,0,0,1,.21-2,2.94,2.94,0,0,1,3.44-1.93,2.71,2.71,0,0,1,2.34,2.64c.09.92.09.92-.82.92Zm-.46-.82h1.81c.18,0,.26,0,.23-.24a1.83,1.83,0,0,0-.72-1.36,2.12,2.12,0,0,0-3.3,1.35c0,.21,0,.25.21.25h1.77" transform="translate(0 0)"/><path class="cls-3" d="M21.19,9.56a3.2,3.2,0,0,1-2.41-.92c-.15-.14-.22-.25,0-.4s.32-.36.51-.41.31.25.48.38A2.44,2.44,0,0,0,22,8.6a.9.9,0,0,0,.71-.76,1,1,0,0,0-.5-1,4.27,4.27,0,0,0-1.13-.43A7.54,7.54,0,0,1,20,6.08a1.67,1.67,0,0,1-1.09-1.71,1.67,1.67,0,0,1,1.33-1.61,3.12,3.12,0,0,1,3.27.74c.16.16.18.26,0,.39s-.29.35-.47.4-.3-.23-.46-.36a2.18,2.18,0,0,0-2.06-.35A.81.81,0,0,0,20.23,5a2.12,2.12,0,0,0,.84.45c.45.16.91.29,1.36.46A1.79,1.79,0,0,1,23.72,8a1.75,1.75,0,0,1-1,1.31,3,3,0,0,1-1.5.3" transform="translate(0 0)"/><path class="cls-3" d="M8.86,4.76c0,1.47,0,2.93,0,4.4,0,.28-.06.38-.36.37-.62,0-.62,0-.62-.61,0-2.86,0-5.71,0-8.57,0-.27.06-.35.34-.34.65,0,.65,0,.65.66Z" transform="translate(0 0)"/><path class="cls-3" d="M8.33,12.87c-.84,0-1.67,0-2.51,0-.27,0-.4-.06-.36-.35a1.33,1.33,0,0,0,0-.3c0-.22.07-.3.3-.3h5.17c.23,0,.3.07.29.3,0,.79.09.63-.64.64s-1.5,0-2.25,0" transform="translate(0 0)"/></g></g></g></g></g></svg>