<svg xmlns="http://www.w3.org/2000/svg" xmlns:xlink="http://www.w3.org/1999/xlink" viewBox="0 0 30 30"><defs><style>.cls-1,.cls-3{fill:none;}.cls-2{clip-path:url(#clip-path);}.cls-3{stroke:#fff;stroke-linecap:round;stroke-linejoin:round;}</style><clipPath id="clip-path" transform="translate(0 0)"><rect class="cls-1" width="30" height="30"/></clipPath></defs><title>brandLinkedin_32px-bkg-dark</title><g id="Calque_2" data-name="Calque 2"><g id="Calque_1-2" data-name="Calque 1"><g id="brandLinkedin_32px-bkg-dark"><g class="cls-2"><g class="cls-2"><path class="cls-3" d="M27.35.5H2.64A2.12,2.12,0,0,0,.5,2.59V27.41A2.12,2.12,0,0,0,2.64,29.5H27.35a2.12,2.12,0,0,0,2.15-2.09V2.59A2.12,2.12,0,0,0,27.35.5Z" transform="translate(0 0)"/><path class="cls-3" d="M4.8,11.37H9.1V25.21H4.8ZM7,4.49A2.49,2.49,0,1,1,4.46,7,2.49,2.49,0,0,1,7,4.49" transform="translate(0 0)"/><path class="cls-3" d="M11.8,11.37h4.13v1.89H16A4.52,4.52,0,0,1,20.05,11c4.35,0,5.16,2.87,5.16,6.59v7.59h-4.3V18.48c0-1.6,0-3.67-2.24-3.67s-2.58,1.75-2.58,3.55v6.85H11.8Z" transform="translate(0 0)"/></g></g></g></g></g></svg>