<svg xmlns="http://www.w3.org/2000/svg" xmlns:xlink="http://www.w3.org/1999/xlink" viewBox="0 0 32 24"><defs><style>.cls-1,.cls-3{fill:none;}.cls-2{clip-path:url(#clip-path);}.cls-3{stroke:#fff;stroke-linecap:round;stroke-linejoin:round;}</style><clipPath id="clip-path" transform="translate(0)"><rect class="cls-1" width="32" height="24"/></clipPath></defs><title>brochure_32px-bkg-dark</title><g id="Calque_2" data-name="Calque 2"><g id="Calque_1-2" data-name="Calque 1"><g id="brochure_32px-bkg-dark"><g class="cls-2"><g class="cls-2"><path class="cls-3" d="M29.5,4.5h1a1,1,0,0,1,1,1v17c0,.55-.45,1-1.5,1H1a1.34,1.34,0,0,1-.5-1V5.5a1,1,0,0,1,1-1h1" transform="translate(0)"/><polyline class="cls-3" points="15.5 23.5 2.5 21.5 2.5 2.5 5.51 2.94"/><polygon class="cls-3" points="15.5 23.5 5.5 19.5 5.5 0.5 15.5 4.5 15.5 23.5"/><polyline class="cls-3" points="15.5 23.5 29.5 21.5 29.5 2.5 26.5 2.94"/><polygon class="cls-3" points="15.5 23.5 26.5 19.5 26.5 0.5 15.5 4.5 15.5 23.5"/><line class="cls-3" x1="8" y1="6.5" x2="13.5" y2="8.6"/><line class="cls-3" x1="8" y1="9.5" x2="13.5" y2="11.6"/><line class="cls-3" x1="8" y1="12.5" x2="13.5" y2="14.6"/><line class="cls-3" x1="8" y1="15.5" x2="13.5" y2="17.6"/><line class="cls-3" x1="24" y1="6.5" x2="18.5" y2="8.6"/><line class="cls-3" x1="24" y1="9.5" x2="18.5" y2="11.6"/><line class="cls-3" x1="24" y1="12.5" x2="18.5" y2="14.6"/><line class="cls-3" x1="24" y1="15.5" x2="18.5" y2="17.6"/></g></g></g></g></g></svg>