<svg xmlns="http://www.w3.org/2000/svg" xmlns:xlink="http://www.w3.org/1999/xlink" viewBox="0 0 32 32"><defs><style>.cls-1,.cls-3{fill:none;}.cls-2{clip-path:url(#clip-path);}.cls-3{stroke:#fff;stroke-linecap:round;stroke-linejoin:round;}</style><clipPath id="clip-path" transform="translate(0 0)"><rect class="cls-1" width="32" height="32"/></clipPath></defs><title>brush_32px-bkg-dark</title><g id="Calque_2" data-name="Calque 2"><g id="Calque_1-2" data-name="Calque 1"><g id="brush_32px-bkg-dark"><g class="cls-2"><g class="cls-2"><path class="cls-3" d="M30.87,1.13A2.14,2.14,0,0,0,27.94,1L11.77,15.51l-4.63,6.2A9.47,9.47,0,0,0,3,23.89C.33,26.55.5,30.84.5,31A.5.5,0,0,0,1,31.5H1.2c1,0,4.59-.18,6.91-2.5a9.47,9.47,0,0,0,2.18-4.14l6.2-4.63L31,4.06A2.15,2.15,0,0,0,30.87,1.13Z" transform="translate(0 0)"/><line class="cls-3" x1="7.14" y1="21.71" x2="10.29" y2="24.86"/><line class="cls-3" x1="16.49" y1="20.23" x2="11.77" y2="15.5"/><line class="cls-3" x1="10.29" y1="17.48" x2="12.07" y2="19.38"/></g></g></g></g></g></svg>