<svg xmlns="http://www.w3.org/2000/svg" xmlns:xlink="http://www.w3.org/1999/xlink" viewBox="0 0 32 13"><defs><style>.cls-1,.cls-3{fill:none;}.cls-2{clip-path:url(#clip-path);}.cls-3{stroke:#fff;stroke-linecap:round;stroke-linejoin:round;}</style><clipPath id="clip-path"><rect class="cls-1" width="32" height="13"/></clipPath></defs><title>cableSpeed_32px-bkg-dark</title><g id="Calque_2" data-name="Calque 2"><g id="Calque_1-2" data-name="Calque 1"><g id="cableSpeed_32px-bkg-dark"><g class="cls-2"><g class="cls-2"><polyline class="cls-3" points="0.5 12.5 22.5 12.5 22.5 0.5 16.5 0.5"/><path class="cls-3" d="M22.5,2.5h8a1,1,0,0,1,0,2h-8"/><path class="cls-3" d="M22.5,9.5h6a1,1,0,0,1,0,2h-6"/><path class="cls-3" d="M22.5,7.5h4a1,1,0,0,1,0,2h-4"/><line class="cls-3" x1="14.5" y1="9.5" x2="9.5" y2="9.5"/><line class="cls-3" x1="14.5" y1="6.5" x2="6.5" y2="6.5"/><line class="cls-3" x1="14.5" y1="3.5" x2="9.5" y2="3.5"/><line class="cls-3" x1="14.5" y1="0.5" x2="12.5" y2="0.5"/><line class="cls-3" x1="6.5" y1="9.5" x2="3.5" y2="9.5"/></g></g></g></g></g></svg>