<svg xmlns="http://www.w3.org/2000/svg" xmlns:xlink="http://www.w3.org/1999/xlink" viewBox="0 0 23.25 32"><defs><style>.cls-1,.cls-4{fill:none;}.cls-2{clip-path:url(#clip-path);}.cls-3{clip-path:url(#clip-path-2);}.cls-4{stroke:#fff;stroke-linecap:round;stroke-linejoin:round;}.cls-5{fill:#fff;}</style><clipPath id="clip-path" transform="translate(0)"><rect class="cls-1" width="23.25" height="32"/></clipPath><clipPath id="clip-path-2" transform="translate(0)"><rect class="cls-1" width="23.25" height="32"/></clipPath></defs><title>cdn_32px-bkg-dark</title><g id="Calque_2" data-name="Calque 2"><g id="Calque_1-2" data-name="Calque 1"><g id="cdn_32px-bkg-dark"><g class="cls-2"><g class="cls-3"><line class="cls-4" x1="9.13" y1="0.5" x2="14.13" y2="0.5"/><circle class="cls-4" cx="11.63" cy="14" r="5.5"/><path class="cls-4" d="M21.12,14c0,5.25-5.54,17.5-9.5,17.5-3,0-9.5-12.25-9.5-17.5a9.5,9.5,0,0,1,19,0Z" transform="translate(0)"/><path class="cls-5" d="M12.33,14.71a1,1,0,0,1-1.41-1.41A8,8,0,0,1,13.62,12a8.67,8.67,0,0,1-1.29,2.71" transform="translate(0)"/><path class="cls-4" d="M3.85,3.28A13.55,13.55,0,0,0,.5,7" transform="translate(0)"/><path class="cls-4" d="M22.75,6.63A13.54,13.54,0,0,0,19,3.28" transform="translate(0)"/></g></g></g></g></g></svg>