<svg xmlns="http://www.w3.org/2000/svg" xmlns:xlink="http://www.w3.org/1999/xlink" viewBox="0 0 24 32"><defs><style>.cls-1,.cls-3{fill:none;}.cls-2{clip-path:url(#clip-path);}.cls-3{stroke:#fff;stroke-linecap:round;stroke-linejoin:round;}</style><clipPath id="clip-path"><rect class="cls-1" width="24" height="32"/></clipPath></defs><title>certificate_32px-bkg-dark</title><g id="Calque_2" data-name="Calque 2"><g id="Calque_1-2" data-name="Calque 1"><g id="certificate_32px-bkg-dark"><g class="cls-2"><g class="cls-2"><polyline class="cls-3" points="12.5 24.14 12.5 31.5 15.5 28.24 18.5 31.5 18.5 24.14"/><circle class="cls-3" cx="15.5" cy="21.5" r="4"/><line class="cls-3" x1="4" y1="10.5" x2="20" y2="10.5"/><path class="cls-3" d="M18.5,28.5h4a1,1,0,0,0,1-1V6.91a1,1,0,0,0-.29-.71L17.79.79A1,1,0,0,0,17.09.5H1.5a1,1,0,0,0-1,1v26a1,1,0,0,0,1,1h11"/><path class="cls-3" d="M17.5,1V5.5a1,1,0,0,0,1,1H23"/><line class="cls-3" x1="4" y1="13.5" x2="20" y2="13.5"/></g></g></g></g></g></svg>