<svg xmlns="http://www.w3.org/2000/svg" xmlns:xlink="http://www.w3.org/1999/xlink" viewBox="0 0 32 22"><defs><style>.cls-1,.cls-3{fill:none;}.cls-2{clip-path:url(#clip-path);}.cls-3{stroke:#fff;stroke-linecap:round;stroke-linejoin:round;}</style><clipPath id="clip-path"><rect class="cls-1" width="32" height="22"/></clipPath></defs><title>chatbot_32px-bkg-dark</title><g id="Calque_2" data-name="Calque 2"><g id="Calque_1-2" data-name="Calque 1"><g id="chatbot_32px-bkg-dark"><g class="cls-2"><g class="cls-2"><path class="cls-3" d="M26.5.5H8.5a5,5,0,0,0-5,5v11a6.29,6.29,0,0,1-3,5h3a3,3,0,0,0,1.87-.66,1.78,1.78,0,0,1,2.26,0,3,3,0,0,0,1.87.66h17a5,5,0,0,0,5-5V5.5A5,5,0,0,0,26.5.5Z"/><path class="cls-3" d="M22.5,5.5h-11a1,1,0,0,0-1,1v9h13v-9A1,1,0,0,0,22.5,5.5Z"/><polyline class="cls-3" points="10.5 11.5 8.5 11.5 8.5 15.5 10.5 15.5"/><line class="cls-3" x1="13.5" y1="12.5" x2="20.5" y2="12.5"/><polyline class="cls-3" points="23.5 15.5 25.5 15.5 25.5 11.5 23.5 11.5"/><line class="cls-3" x1="14.5" y1="10.5" x2="14.5" y2="8.5"/><line class="cls-3" x1="19.5" y1="10.5" x2="19.5" y2="8.5"/></g></g></g></g></g></svg>