<svg xmlns="http://www.w3.org/2000/svg" xmlns:xlink="http://www.w3.org/1999/xlink" viewBox="0 0 20 20"><defs><style>.cls-1,.cls-3{fill:none;}.cls-2{clip-path:url(#clip-path);}.cls-3{stroke:#122844;stroke-linecap:round;stroke-linejoin:round;}</style><clipPath id="clip-path" transform="translate(0)"><rect class="cls-1" width="20" height="20"/></clipPath></defs><title>gear_20px-bkg-light</title><g id="Calque_2" data-name="Calque 2"><g id="Calque_1-2" data-name="Calque 1"><g id="gear_20px-bkg-light"><g class="cls-2"><g class="cls-2"><circle class="cls-3" cx="10" cy="10" r="2.5"/><path class="cls-3" d="M19.37,11.5A9.51,9.51,0,0,0,19.5,10a9.51,9.51,0,0,0-.13-1.5h-2a7.45,7.45,0,0,0-1.09-2.63l1.43-1.43a9.62,9.62,0,0,0-1-1.15,9.72,9.72,0,0,0-1.15-1L14.13,3.75a7.47,7.47,0,0,0-2.63-1.1v-2A9.51,9.51,0,0,0,10,.5,9.51,9.51,0,0,0,8.5.63v2a7.47,7.47,0,0,0-2.63,1.1L4.44,2.31a9.72,9.72,0,0,0-1.15,1,9.72,9.72,0,0,0-1,1.15L3.75,5.87A7.47,7.47,0,0,0,2.65,8.5h-2A9.51,9.51,0,0,0,.5,10a9.51,9.51,0,0,0,.13,1.5h2a7.47,7.47,0,0,0,1.09,2.63L2.31,15.57a9.72,9.72,0,0,0,1,1.15,9.62,9.62,0,0,0,1.15,1l1.43-1.43A7.47,7.47,0,0,0,8.5,17.35v2a9.51,9.51,0,0,0,1.5.13,9.51,9.51,0,0,0,1.5-.13v-2a7.47,7.47,0,0,0,2.63-1.09l1.43,1.43a9.62,9.62,0,0,0,1.15-1,9.62,9.62,0,0,0,1-1.15l-1.43-1.43a7.45,7.45,0,0,0,1.09-2.63Z" transform="translate(0)"/></g></g></g></g></g></svg>