<svg enable-background="new 0 0 48 48" viewBox="0 0 48 48" xmlns="http://www.w3.org/2000/svg"><path d="m35 34h-2c-1.654 0-3-1.346-3-3v-2c0-.002 0-.003 0-.005 2.427-1.826 4-4.73 4-7.995v-5.172c1.164-.413 2-1.524 2-2.828v-8c0-2.758-2.243-5-5-5h-10c-1.304 0-2.416.836-2.829 2h-1.171c-2.757 0-5 2.242-5 5v6c0 1.304.836 2.415 2 2.828v5.172c0 3.265 1.573 6.168 4 7.995v.005 2c0 1.654-1.346 3-3 3h-2c-6.065 0-11 4.936-11 11v2c0 .553.447 1 1 1s1-.447 1-1v-2c0-4.963 4.037-9 9-9h1.062c.555 4.494 4.8 8 9.938 8s9.383-3.506 9.938-8h1.062c4.963 0 9 4.037 9 9v2c0 .553.447 1 1 1s1-.447 1-1v-2c0-6.064-4.935-11-11-11zm-19-13v-7c0-.551.448-1 1-1h12c .553 0 1-.447 1-1s-.447-1-1-1h-12c-1.435 0-2.638 1.013-2.931 2.362-.044-.112-.069-.234-.069-.362v-6c0-1.654 1.346-3 3-3h2c .553 0 1-.447 1-1 0-.551.448-1 1-1h10c1.654 0 3 1.346 3 3v7c0-.553-.447-1-1-1s-1 .447-1 1v9c0 4.412-3.589 8-8 8s-8-3.588-8-8zm8 21c-4.069 0-7.438-2.672-7.936-6.115 2.247-.489 3.936-2.492 3.936-4.885v-.836c1.226.537 2.578.836 4 .836s2.774-.299 4-.836v.836c0 2.393 1.689 4.396 3.936 4.885-.498 3.443-3.867 6.115-7.936 6.115z" /></svg>